<svg width="191" height="190" viewBox="0 0 191 190" fill="none" xmlns="http://www.w3.org/2000/svg">
<rect width="191" height="190" fill="#FFFDFD"/>
<ellipse cx="96" cy="95.5" rx="72" ry="71.5" fill="#417ABD"/>
<path d="M62.3018 125.124L57.6804 125.09L57.6525 128.869L63.021 128.909L63.0125 130.059L56.2378 130.009L56.3165 119.345L63.018 119.394L63.0094 120.552L57.7142 120.513L57.6888 123.94L62.3103 123.974L62.3018 125.124ZM69.443 130.106C69.366 129.949 69.3046 129.671 69.2587 129.27C68.624 129.92 67.8697 130.241 66.9957 130.235C66.2144 130.229 65.574 130.004 65.0743 129.561C64.5796 129.113 64.3347 128.55 64.3397 127.871C64.3458 127.046 64.663 126.409 65.2913 125.959C65.9246 125.505 66.81 125.282 67.9477 125.29L69.266 125.3L69.2706 124.678C69.2741 124.204 69.1353 123.827 68.8542 123.547C68.5731 123.261 68.1566 123.117 67.6049 123.113C67.1215 123.109 66.7153 123.228 66.3864 123.47C66.0575 123.711 65.8917 124.006 65.8892 124.352L64.5269 124.342C64.5298 123.947 64.6718 123.567 64.9528 123.203C65.2387 122.834 65.6217 122.544 66.1018 122.332C66.5868 122.121 67.1174 122.018 67.6935 122.022C68.6066 122.029 69.3202 122.263 69.8344 122.726C70.3486 123.184 70.6125 123.813 70.6261 124.614L70.5992 128.262C70.5938 128.989 70.6823 129.568 70.8647 130L70.8638 130.117L69.443 130.106ZM67.2021 129.057C67.6269 129.06 68.0305 128.953 68.413 128.736C68.7955 128.519 69.0735 128.236 69.247 127.885L69.259 126.26L68.197 126.252C66.5369 126.239 65.7032 126.719 65.696 127.691C65.6929 128.116 65.8321 128.449 66.1135 128.69C66.3949 128.931 66.7578 129.054 67.2021 129.057ZM77.3391 128.062C77.3418 127.696 77.2048 127.412 76.9279 127.21C76.656 127.003 76.1764 126.823 75.489 126.672C74.8065 126.52 74.2634 126.34 73.8596 126.132C73.4608 125.924 73.1647 125.678 72.9715 125.393C72.7832 125.109 72.6904 124.771 72.6933 124.381C72.6981 123.731 72.9756 123.184 73.5258 122.739C74.0808 122.294 74.7856 122.074 75.6401 122.08C76.5385 122.087 77.2643 122.324 77.8175 122.792C78.3756 123.26 78.652 123.856 78.6466 124.578L77.2844 124.568C77.2871 124.197 77.1308 123.876 76.8154 123.605C76.5049 123.334 76.1104 123.197 75.6319 123.194C75.1387 123.19 74.7522 123.295 74.4723 123.507C74.1924 123.72 74.0512 124 74.0486 124.347C74.0462 124.674 74.1738 124.921 74.4313 125.089C74.6889 125.257 75.154 125.419 75.8267 125.576C76.5043 125.732 77.0522 125.917 77.4706 126.13C77.8889 126.343 78.1971 126.599 78.3951 126.898C78.598 127.193 78.6979 127.552 78.6948 127.977C78.6895 128.685 78.4022 129.252 77.8326 129.677C77.2631 130.098 76.5267 130.305 75.6234 130.298C74.9886 130.294 74.4279 130.177 73.9413 129.949C73.4547 129.721 73.0737 129.405 72.7984 129.003C72.5279 128.596 72.3944 128.158 72.3979 127.689L73.7528 127.699C73.7739 128.153 73.9519 128.516 74.2868 128.787C74.6267 129.053 75.0749 129.188 75.6315 129.192C76.1442 129.196 76.5551 129.097 76.8642 128.894C77.1783 128.686 77.3366 128.409 77.3391 128.062ZM81.85 123.232C82.456 122.499 83.24 122.137 84.2019 122.144C85.8766 122.156 86.7143 123.107 86.715 124.997L86.6764 130.233L85.3214 130.223L85.3602 124.979C85.3595 124.408 85.2308 123.985 84.974 123.709C84.7221 123.434 84.3252 123.295 83.7832 123.291C83.3438 123.287 82.9572 123.402 82.6234 123.634C82.2897 123.865 82.0286 124.171 81.8403 124.551L81.7986 130.197L80.4436 130.187L80.5267 118.938L81.8816 118.948L81.85 123.232ZM93.5976 130.285C93.5206 130.128 93.4592 129.849 93.4133 129.448C92.7786 130.098 92.0243 130.419 91.1503 130.413C90.369 130.407 89.7286 130.183 89.2289 129.74C88.7342 129.292 88.4893 128.728 88.4943 128.05C88.5004 127.224 88.8176 126.587 89.446 126.138C90.0792 125.683 90.9647 125.46 92.1023 125.469L93.4207 125.478L93.4252 124.856C93.4287 124.382 93.2899 124.005 93.0088 123.725C92.7277 123.44 92.3113 123.295 91.7595 123.291C91.2761 123.287 90.87 123.406 90.541 123.648C90.2121 123.89 90.0463 124.184 90.0438 124.531L88.6815 124.521C88.6844 124.125 88.8264 123.745 89.1074 123.381C89.3933 123.012 89.7764 122.722 90.2564 122.511C90.7414 122.299 91.272 122.196 91.8481 122.2C92.7612 122.207 93.4748 122.442 93.989 122.904C94.5032 123.362 94.7671 123.992 94.7807 124.793L94.7538 128.44C94.7484 129.168 94.8369 129.747 95.0193 130.178L95.0184 130.295L93.5976 130.285ZM91.3567 129.235C91.7815 129.238 92.1852 129.132 92.5676 128.915C92.9501 128.698 93.2281 128.414 93.4016 128.064L93.4136 126.438L92.3516 126.43C90.6915 126.418 89.8578 126.897 89.8507 127.869C89.8475 128.294 89.9867 128.627 90.2681 128.868C90.5495 129.11 90.9124 129.232 91.3567 129.235ZM98.2043 122.394L98.2409 123.39C98.852 122.633 99.6458 122.258 100.622 122.265C102.297 122.277 103.135 123.228 103.135 125.118L103.097 130.355L101.742 130.345L101.781 125.101C101.78 124.529 101.651 124.106 101.394 123.831C101.143 123.555 100.746 123.416 100.204 123.412C99.7642 123.409 99.3776 123.523 99.0439 123.755C98.7101 123.987 98.4491 124.292 98.2607 124.672L98.219 130.319L96.8641 130.309L96.9226 122.384L98.2043 122.394ZM109.073 130.399L109.152 119.735L112.638 119.761C113.795 119.769 114.663 120.015 115.24 120.498C115.823 120.981 116.11 121.691 116.103 122.628C116.1 123.126 115.955 123.567 115.669 123.951C115.383 124.329 114.995 124.622 114.505 124.828C115.08 124.994 115.532 125.305 115.861 125.761C116.194 126.213 116.359 126.751 116.354 127.376C116.347 128.333 116.031 129.083 115.407 129.625C114.783 130.168 113.905 130.434 112.772 130.426L109.073 130.399ZM110.516 125.422L110.488 129.259L112.81 129.276C113.464 129.281 113.98 129.117 114.359 128.782C114.742 128.444 114.936 127.976 114.94 127.381C114.95 126.096 114.256 125.449 112.86 125.439L110.516 125.422ZM110.525 124.294L112.649 124.309C113.264 124.314 113.756 124.164 114.124 123.859C114.497 123.554 114.686 123.138 114.69 122.61C114.694 122.025 114.527 121.598 114.187 121.332C113.847 121.061 113.328 120.923 112.63 120.918L110.55 120.903L110.525 124.294ZM123.099 130.502C123.022 130.346 122.96 130.067 122.914 129.666C122.28 130.316 121.525 130.637 120.651 130.631C119.87 130.625 119.23 130.401 118.73 129.957C118.235 129.509 117.99 128.946 117.995 128.267C118.002 127.442 118.319 126.805 118.947 126.355C119.58 125.901 120.466 125.678 121.603 125.686L122.922 125.696L122.926 125.074C122.93 124.6 122.791 124.223 122.51 123.943C122.229 123.657 121.812 123.513 121.261 123.509C120.777 123.505 120.371 123.624 120.042 123.866C119.713 124.108 119.547 124.402 119.545 124.748L118.183 124.738C118.186 124.343 118.328 123.963 118.609 123.599C118.894 123.23 119.278 122.94 119.758 122.728C120.243 122.517 120.773 122.414 121.349 122.418C122.262 122.425 122.976 122.659 123.49 123.122C124.004 123.58 124.268 124.21 124.282 125.01L124.255 128.658C124.25 129.385 124.338 129.965 124.52 130.396L124.52 130.513L123.099 130.502ZM120.858 129.453C121.283 129.456 121.686 129.349 122.069 129.132C122.451 128.915 122.729 128.632 122.903 128.282L122.915 126.656L121.853 126.648C120.193 126.636 119.359 127.115 119.352 128.087C119.349 128.512 119.488 128.845 119.769 129.086C120.051 129.327 120.414 129.45 120.858 129.453ZM127.823 122.612L127.757 131.452C127.746 132.976 127.05 133.732 125.668 133.722C125.37 133.72 125.094 133.674 124.841 133.584L124.849 132.5C125.005 132.54 125.21 132.561 125.464 132.563C125.767 132.566 125.997 132.484 126.154 132.319C126.317 132.159 126.399 131.877 126.402 131.472L126.468 122.602L127.823 122.612ZM126.344 120.499C126.346 120.284 126.413 120.102 126.546 119.951C126.684 119.796 126.882 119.719 127.141 119.721C127.404 119.723 127.604 119.8 127.74 119.953C127.875 120.105 127.942 120.291 127.941 120.511C127.939 120.731 127.869 120.913 127.732 121.059C127.594 121.204 127.393 121.276 127.129 121.274C126.866 121.272 126.668 121.197 126.538 121.05C126.407 120.902 126.342 120.719 126.344 120.499ZM134.846 130.589C134.769 130.432 134.708 130.153 134.662 129.753C134.028 130.402 133.273 130.724 132.399 130.717C131.618 130.712 130.977 130.487 130.478 130.044C129.983 129.596 129.738 129.033 129.743 128.354C129.749 127.529 130.066 126.892 130.695 126.442C131.328 125.988 132.214 125.765 133.351 125.773L134.67 125.783L134.674 125.16C134.678 124.687 134.539 124.31 134.258 124.029C133.977 123.744 133.56 123.599 133.008 123.595C132.525 123.592 132.119 123.711 131.79 123.953C131.461 124.194 131.295 124.488 131.293 124.835L129.93 124.825C129.933 124.43 130.075 124.05 130.356 123.686C130.642 123.317 131.025 123.026 131.505 122.815C131.99 122.604 132.521 122.5 133.097 122.505C134.01 122.511 134.724 122.746 135.238 123.209C135.752 123.667 136.016 124.296 136.03 125.097L136.003 128.745C135.997 129.472 136.086 130.051 136.268 130.482L136.267 130.6L134.846 130.589ZM132.606 129.54C133.03 129.543 133.434 129.436 133.817 129.219C134.199 129.002 134.477 128.719 134.65 128.368L134.662 126.742L133.6 126.735C131.94 126.722 131.107 127.202 131.1 128.174C131.096 128.598 131.236 128.932 131.517 129.173C131.798 129.414 132.161 129.536 132.606 129.54ZM139.57 122.699L139.505 131.539C139.494 133.062 138.797 133.819 137.416 133.809C137.118 133.807 136.842 133.761 136.589 133.671L136.597 132.587C136.753 132.627 136.958 132.648 137.212 132.65C137.514 132.652 137.745 132.571 137.902 132.406C138.064 132.246 138.147 131.964 138.15 131.558L138.215 122.689L139.57 122.699ZM138.092 120.586C138.093 120.371 138.161 120.188 138.294 120.038C138.431 119.883 138.63 119.806 138.889 119.808C139.152 119.81 139.352 119.887 139.487 120.04C139.623 120.192 139.69 120.378 139.688 120.598C139.687 120.817 139.617 121 139.479 121.145C139.341 121.291 139.141 121.363 138.877 121.361C138.613 121.359 138.416 121.284 138.285 121.137C138.155 120.989 138.09 120.806 138.092 120.586Z" fill="#120000"/>
<line x1="105.819" y1="63.8315" x2="89.8189" y2="98.8315" stroke="#FFFBFB" stroke-width="4"/>
<line x1="56.029" y1="78.285" x2="81.029" y2="93.285" stroke="black" stroke-width="4"/>
<line x1="54.2454" y1="78.1478" x2="81.2454" y2="67.1478" stroke="black" stroke-width="4"/>
<path d="M137.87 83.488L113.161 68.0127M139.205 83.6165L112 94.0981" stroke="black" stroke-width="4"/>
</svg>
